<svg id="Lines_Version" data-name="Lines Version" xmlns="http://www.w3.org/2000/svg" viewBox="0 0 1328.53 629.62"><defs><style>.cls-1{fill:#003;}</style></defs><path class="cls-1" d="M658.7,214.28h14l-83.78,94.35,95.21,106.66H669.28l-94.64-105.8V415.28H563.21v-201h11.43v94.06Z"/><path class="cls-1" d="M758.83,233.43V415.28H747.39v-201h12.87L868.34,396.41V214.28h11.43v201H867.2Z"/><path class="cls-1" d="M968.31,214.28H980v201H968.31Z"/><path class="cls-1" d="M1128.44,309.23l64.61,106.08h-13.42l-58.93-96.64-59.46,96.64h-12.87l66.33-106.94-56.61-94.06h13.42l50.89,84.34,52-84.34h12.86Z"/><path class="cls-1" d="M439.84,362.32,439.35,268v-.12a5.81,5.81,0,0,0-.1-.85,4.28,4.28,0,0,0-.26-1l-.29-.77-.42-.5-56.06-77.16-83-27A9.54,9.54,0,1,0,285,170.73v69.21a9.52,9.52,0,0,0-4.68,8.2,5.49,5.49,0,0,0,0,.58l-60.05,41.63a9.48,9.48,0,0,0-9.67,1l-56.16-24.67a9.55,9.55,0,1,0-3.75,8.78l56.12,24.64a9.54,9.54,0,0,0,19-1.1,8.44,8.44,0,0,0,0-.87l59.81-41.46a9.47,9.47,0,0,0,8.43,0l63.51,44.16L333.09,373a9.52,9.52,0,0,0-5.77,3.9h-75a9.54,9.54,0,0,0-17.4,5.4,9.42,9.42,0,0,0,.52,3.07L201.56,428.6a9.42,9.42,0,0,0-1.06-.06,9.52,9.52,0,1,0,8.74,5.72l33.37-42.62a10,10,0,0,0,1.83.18,9.53,9.53,0,0,0,8.58-5.4H326.6a9.53,9.53,0,0,0,8.58,5.4,10.43,10.43,0,0,0,1.78-.17l33.35,42.57a9.54,9.54,0,1,0,17.86-.39ZM299.37,248.78c0-.21,0-.42,0-.64a9.51,9.51,0,0,0-4.85-8.3V170.9a9.8,9.8,0,0,0,1.74-1.24l80,26,50.92,70.07-63.46,27.81Zm81.3,179.14a10.24,10.24,0,0,0-1.36-.1,9.29,9.29,0,0,0-1.76.17L344.19,385.4a9.48,9.48,0,0,0-2-9.57l24.89-73.31L397,289.41,429.85,275l.43,84.23Z"/><circle class="cls-1" cx="200.39" cy="191.79" r="9.54"/><circle class="cls-1" cx="289.84" cy="467.06" r="9.54"/><circle class="cls-1" cx="145.06" cy="362.07" r="9.54"/></svg>