<svg id="Lines_Version" data-name="Lines Version" xmlns="http://www.w3.org/2000/svg" viewBox="0 0 1003.92 1004.61"><defs><style>.cls-1{fill:#124191;}.cls-2{fill:none;}</style></defs><path class="cls-1" d="M278,661h14.3l-85.49,96.29L304,866.15H288.84l-96.58-108v108H180.59V661h11.67v96Z"/><path class="cls-1" d="M380.22,680.57V866.13H368.55V661h13.13L492,846.85V661h11.66V866.13H490.8Z"/><path class="cls-1" d="M594,661h12V866.13H594Z"/><path class="cls-1" d="M757.39,757.92l65.94,108.24h-13.7L749.5,767.54l-60.69,98.62h-13.1L743.37,757l-57.76-96h13.7l51.92,86.1,53.11-86.1h13.13Z"/><polygon class="cls-2" points="501.69 258.98 407.9 324.19 443.72 429.71 559.65 429.71 595.47 324.19 501.69 258.98"/><path class="cls-1" d="M594.79,331.13l-99.19-69V141.64L619.7,182,692,281.58l.25.79a6.23,6.23,0,0,1-3.44,7.6Zm-87-75.33,88.37,61.45,81-35.47-65-89.44L507.78,158.4Z"/><path class="cls-1" d="M616.17,511.72l-63.35-80.85,37.72-111.16,94.4-41.36h1.36a6.33,6.33,0,0,1,6.31,6.08v.19l.62,120.45Zm-49.7-83.18,49.3,62.93L681,401.16l-.55-107.56-80.13,35.11Z"/><polygon class="cls-2" points="387.43 501.6 443.72 429.71 559.65 429.71 615.93 501.6 501.69 538.72 387.43 501.6"/><polygon class="cls-2" points="407.9 324.19 316.82 284.28 316.82 404.41 387.43 501.6 443.72 429.71 407.9 324.19"/><polygon class="cls-2" points="501.69 258.98 501.69 149.97 387.43 187.09 316.82 284.28 407.9 324.19 501.69 258.98"/><circle class="cls-1" cx="501.87" cy="150.62" r="12.18"/><circle class="cls-1" cx="501.79" cy="259.27" r="12.18"/><circle class="cls-1" cx="407.91" cy="321.24" r="12.18"/><circle class="cls-1" cx="316.87" cy="284.42" r="12.18"/><circle class="cls-1" cx="387.56" cy="187.32" r="12.18"/><circle class="cls-1" cx="443.8" cy="432.8" r="12.18"/><circle class="cls-1" cx="559.65" cy="430.51" r="12.18"/><circle class="cls-1" cx="615.85" cy="501.12" r="12.18"/><circle class="cls-1" cx="501.5" cy="539.81" r="12.18"/><circle class="cls-1" cx="387.9" cy="501.14" r="12.18"/><circle class="cls-1" cx="316.93" cy="404.71" r="12.18"/><polygon class="cls-1" points="408.42 331.15 314.37 289.85 319.27 278.7 407.08 317.26 498.21 254.08 505.15 264.09 408.42 331.15"/><polygon class="cls-1" points="392.23 505.35 382.64 497.84 440.75 423.62 559.65 423.62 559.65 435.8 446.68 435.8 392.23 505.35"/></svg>